<?xml version="1.0" standalone="no"?>
<!DOCTYPE svg PUBLIC "-//W3C//DTD SVG 20010904//EN"
 "http://www.w3.org/TR/2001/REC-SVG-20010904/DTD/svg10.dtd">
<svg version="1.0" xmlns="http://www.w3.org/2000/svg"
 width="1750.000000pt" height="1750.000000pt" viewBox="0 0 1750.000000 1750.000000"
 preserveAspectRatio="xMidYMid meet">

<g transform="translate(0.000000,1750.000000) scale(0.100000,-0.100000)"
fill="#000000" stroke="none">
<path d="M7628 17495 c-3 -3 -45 -10 -94 -15 -49 -5 -108 -12 -131 -15 l-43
-6 4 -70 c3 -46 0 -80 -9 -102 -12 -28 -96 -163 -138 -222 -48 -67 -315 -171
-647 -250 -85 -21 -227 -60 -315 -87 -88 -27 -243 -69 -345 -93 -279 -66 -535
-157 -760 -270 -104 -52 -149 -67 -135 -45 9 14 245 146 380 212 66 32 107 55
90 52 -67 -15 -135 -44 -181 -76 -27 -19 -116 -70 -199 -113 -196 -102 -292
-166 -408 -272 -116 -107 -339 -347 -401 -430 -24 -34 -55 -64 -68 -68 -13 -4
-40 -23 -60 -43 -40 -38 -58 -37 -40 3 7 15 8 27 2 30 -13 8 -13 51 0 76 6 10
9 19 6 19 -2 0 -48 -73 -102 -162 -95 -159 -197 -312 -214 -323 -5 -3 -6 18
-3 47 4 43 1 60 -17 91 -12 20 -26 37 -30 37 -4 0 -38 -54 -75 -120 -53 -95
-81 -133 -128 -175 -34 -30 -63 -53 -64 -51 -8 8 246 533 286 591 12 17 21 41
21 56 0 37 73 181 115 228 20 22 34 45 30 51 -3 5 0 10 7 10 17 0 88 71 88 88
0 7 -2 12 -5 12 -22 0 -227 -153 -297 -221 -47 -46 -104 -98 -125 -116 -26
-20 -46 -48 -58 -80 -10 -26 -33 -69 -52 -95 -26 -36 -31 -48 -19 -48 9 0 16
-4 16 -10 0 -17 17 -11 22 8 6 22 38 25 38 5 0 -8 4 -12 8 -9 4 2 14 1 21 -4
11 -6 9 -14 -8 -39 -21 -30 -35 -35 -74 -32 -9 1 -30 -7 -46 -18 -16 -12 -36
-21 -44 -21 -8 0 -44 -44 -81 -97 -36 -54 -87 -127 -113 -163 -42 -58 -50 -80
-84 -216 -41 -163 -51 -233 -69 -449 l-12 -140 -48 -75 c-26 -41 -60 -99 -74
-129 l-28 -53 -44 5 c-26 2 -62 17 -87 33 -23 16 -51 31 -62 34 -11 3 -25 20
-30 36 -6 17 -16 38 -24 48 -11 14 -12 37 -2 144 7 70 14 141 17 159 4 30 3
32 -23 30 -26 -2 -30 -8 -50 -78 -41 -146 -105 -435 -110 -499 -7 -90 6 -134
39 -138 20 -2 200 47 274 75 5 2 20 -5 32 -15 l22 -19 -57 -21 c-32 -11 -87
-30 -123 -43 -36 -12 -75 -26 -88 -30 l-22 -9 20 -20 c11 -11 26 -20 34 -20 7
0 19 -6 25 -14 10 -12 6 -29 -18 -84 -17 -39 -31 -73 -31 -76 0 -3 25 -13 55
-21 61 -18 71 -38 34 -71 -37 -33 -110 -134 -104 -143 3 -5 20 -12 38 -16 68
-14 73 -16 54 -30 -12 -9 -31 -9 -72 -2 -39 7 -59 7 -66 0 -8 -8 0 -14 28 -23
21 -7 42 -16 48 -21 13 -13 -22 -45 -132 -121 -50 -34 -126 -97 -168 -137
l-77 -75 16 -27 c11 -18 16 -51 16 -96 0 -64 -2 -71 -31 -99 -17 -16 -41 -49
-54 -74 -26 -51 -102 -150 -116 -150 -4 0 -16 15 -25 32 -17 32 -17 33 -26 9
-4 -13 -45 -69 -91 -125 -45 -56 -89 -113 -98 -126 -8 -13 -20 -20 -26 -17
-11 7 -57 137 -103 292 -11 39 -29 86 -40 105 l-19 35 -1 -37 c0 -24 -7 -45
-20 -58 -23 -23 -67 -209 -105 -448 -25 -156 -26 -157 -62 -189 -20 -18 -42
-33 -49 -33 -7 0 -26 19 -43 43 -16 23 -39 53 -52 66 -29 31 -87 151 -103 215
l-13 48 -11 -28 c-6 -16 -13 -62 -17 -103 -8 -90 -17 -118 -31 -99 -6 7 -34
78 -62 158 -106 296 -138 379 -156 399 -18 20 -86 295 -86 351 0 20 -2 22 -10
10 -6 -8 -10 -58 -10 -110 1 -52 -2 -268 -6 -480 -7 -375 -7 -386 13 -425 12
-22 26 -75 33 -119 6 -43 18 -96 26 -118 19 -55 18 -64 -6 -43 -20 18 -20 17
-20 -24 0 -23 9 -59 20 -81 29 -58 26 -94 -11 -123 l-30 -24 26 -94 c36 -126
121 -276 204 -360 40 -40 101 -115 101 -123 0 -3 -10 -6 -22 -7 -22 0 -22 -1
-3 -9 90 -37 792 -219 925 -240 41 -6 98 -10 125 -8 l50 3 -83 53 c-46 30
-117 70 -157 89 -58 27 -87 49 -130 99 -68 77 -65 78 105 33 99 -26 134 -30
257 -32 80 -1 144 2 145 7 2 5 -17 16 -42 24 -25 8 -47 18 -50 22 -3 4 -18 13
-35 22 -130 65 -171 92 -192 126 -12 20 -23 39 -23 42 0 3 85 5 188 6 103 1
219 5 257 9 l70 8 -40 9 c-22 5 -53 12 -70 15 -31 6 -125 68 -125 83 0 5 17
19 38 32 34 21 47 23 187 23 l150 0 -1 35 c0 19 -2 48 -5 65 -4 27 0 32 49 58
45 25 52 32 52 59 0 36 29 88 50 89 57 2 202 -1 208 -5 16 -9 167 -24 194 -19
26 5 27 6 14 32 -8 14 -17 48 -21 74 -6 36 -13 51 -28 56 -18 7 -13 12 40 43
33 20 71 39 84 42 13 4 40 14 60 22 34 15 39 14 95 -9 32 -14 77 -28 99 -32
22 -4 62 -16 88 -27 52 -20 67 -17 67 10 0 20 -14 47 -94 184 -31 53 -56 99
-56 102 0 8 119 43 173 51 26 4 50 12 54 18 3 5 5 40 4 78 -2 61 0 69 21 83
24 15 276 96 363 116 94 22 216 42 222 37 10 -10 -9 -29 -43 -43 -38 -16 -184
-112 -184 -121 0 -3 9 -20 19 -37 32 -53 61 -163 61 -235 0 -136 -65 -525
-118 -706 -19 -66 -41 -147 -49 -180 -36 -149 -118 -346 -184 -441 -18 -27
-77 -96 -131 -154 -118 -126 -220 -195 -448 -306 -85 -42 -176 -87 -201 -100
-26 -13 -100 -37 -165 -53 -66 -16 -199 -49 -297 -75 -97 -25 -189 -46 -205
-46 -15 0 -94 -11 -177 -25 -298 -50 -578 -42 -783 24 -107 35 -134 40 -139
26 -4 -14 235 -81 367 -102 150 -25 466 -22 655 6 144 21 325 28 325 12 0 -18
-234 -93 -335 -108 -55 -8 -148 -23 -206 -34 -58 -10 -118 -19 -134 -19 -15 0
-25 -3 -22 -6 9 -9 152 -6 312 6 282 22 434 60 740 185 77 31 210 85 296 120
170 69 327 144 374 180 17 12 46 30 65 40 19 10 55 34 80 54 25 20 65 50 90
66 113 72 535 506 628 646 30 44 67 90 83 102 77 56 225 290 310 489 21 49 43
95 48 102 5 6 14 37 21 68 15 73 30 84 30 21 0 -47 47 -244 69 -293 10 -22 7
-36 -26 -105 -20 -44 -39 -84 -41 -89 -5 -9 76 -3 115 9 30 10 43 -23 54 -135
7 -80 6 -87 -14 -109 -26 -28 -152 -131 -180 -147 -18 -10 -17 -12 9 -28 36
-24 107 -23 167 3 68 29 73 28 81 -25 4 -34 1 -54 -14 -84 -11 -22 -20 -46
-20 -54 0 -8 -46 -56 -102 -107 -57 -50 -107 -99 -112 -108 -5 -9 -28 -33 -50
-54 l-41 -38 72 5 c39 2 118 19 175 36 204 63 189 59 195 42 4 -8 7 -43 7 -78
1 -77 -1 -79 -147 -168 -98 -59 -149 -82 -395 -176 -50 -19 -80 -36 -76 -42 7
-11 335 -6 634 11 145 8 165 11 305 55 179 56 265 90 293 116 17 16 20 27 14
57 -14 82 -12 85 53 108 33 12 76 27 95 33 75 24 250 53 358 59 61 3 112 10
112 14 0 12 102 -25 154 -56 82 -48 176 -176 176 -241 0 -11 3 -23 6 -27 5 -5
141 48 153 59 8 8 -74 86 -132 126 -79 54 -325 173 -420 203 -101 32 -117 41
-117 65 0 15 7 20 30 20 16 0 41 -5 55 -12 14 -6 28 -8 32 -5 10 10 -112 118
-169 149 -27 15 -66 41 -87 57 -21 17 -77 48 -123 70 -67 30 -88 45 -96 67 -7
16 -21 41 -33 55 -20 25 -21 37 -20 187 1 107 6 175 15 204 45 138 205 491
330 728 52 98 53 108 12 198 -20 44 -36 86 -36 94 0 9 17 35 38 59 20 24 52
64 71 87 l33 44 -38 39 c-21 21 -34 39 -28 39 5 0 54 -45 109 -100 55 -55 105
-100 112 -100 7 0 13 -5 13 -11 0 -6 46 -60 101 -120 86 -92 117 -117 203
-167 55 -32 108 -62 118 -65 9 -3 47 9 85 28 37 18 157 64 266 101 193 65 200
69 262 125 35 32 106 92 157 134 51 43 98 82 103 87 27 27 -421 -26 -622 -74
-96 -23 -138 -29 -153 -22 -20 9 -18 12 32 46 55 37 104 52 288 83 110 19 304
91 370 138 83 58 264 200 313 245 l47 43 73 -6 c39 -4 96 -11 126 -16 30 -5
56 -7 58 -6 2 2 -35 34 -81 70 -45 36 -113 93 -149 126 -36 32 -94 78 -128
102 -62 42 -494 258 -598 299 -65 25 -97 22 -266 -26 -66 -18 -145 -39 -175
-45 -30 -6 -83 -19 -117 -30 -70 -23 -86 -22 -358 27 -77 13 -169 29 -205 34
-63 8 -62 8 25 5 327 -15 472 -24 486 -30 10 -3 20 -2 23 4 6 9 -20 116 -43
174 -17 43 -15 46 47 73 31 14 85 39 120 56 l64 30 99 -26 c91 -25 117 -27
310 -29 200 -2 208 -2 187 15 -23 17 -222 103 -308 133 -25 9 -88 40 -140 70
-52 30 -103 57 -112 61 -47 17 -3 24 157 24 96 0 175 4 175 9 0 5 -26 19 -57
31 -32 13 -87 40 -123 60 -106 61 -208 110 -229 110 -22 0 -31 19 -31 67 l0
35 -77 -7 c-84 -7 -260 -43 -362 -75 l-64 -19 28 29 c17 18 73 47 155 79 240
96 388 121 707 121 120 0 245 -6 278 -11 113 -21 320 -81 356 -104 20 -13 83
-47 140 -75 119 -59 271 -158 344 -224 l50 -45 -134 -1 -134 0 118 -75 c65
-42 143 -97 174 -123 31 -26 73 -60 94 -76 60 -44 164 -144 229 -219 53 -62
58 -71 58 -115 0 -27 7 -57 15 -68 17 -23 19 -54 3 -54 -6 0 -35 23 -65 51
-38 36 -85 65 -161 100 -59 28 -124 59 -144 70 -30 16 -38 17 -38 6 0 -8 82
-138 183 -289 101 -151 204 -315 230 -364 53 -104 89 -220 116 -377 19 -108
28 -127 64 -127 25 0 87 -27 87 -38 0 -11 -91 -52 -113 -52 -22 0 -27 -42 -37
-327 -6 -142 -13 -274 -16 -293 l-7 -35 27 25 c25 23 29 24 54 9 34 -18 39
-54 22 -164 -13 -87 -40 -179 -76 -262 -13 -29 -22 -53 -19 -53 16 0 87 135
133 254 63 165 79 233 88 377 5 83 10 106 20 102 29 -11 36 -72 30 -246 -3
-95 -10 -187 -17 -205 -8 -23 -8 -36 0 -46 20 -23 -105 -330 -221 -541 -89
-162 -132 -227 -224 -337 -41 -48 -74 -90 -74 -93 0 -3 20 8 45 25 38 26 59
32 138 40 215 22 199 22 195 3 -3 -13 6 -21 32 -28 26 -8 36 -17 38 -35 4 -36
-205 -243 -240 -238 -18 2 -22 8 -20 28 5 30 5 31 -50 -45 -24 -33 -100 -125
-167 -205 -110 -130 -127 -145 -155 -145 -30 0 -31 1 -29 40 l3 40 -18 -25
c-9 -14 -38 -52 -64 -85 -26 -33 -64 -84 -85 -114 -45 -66 -190 -219 -237
-252 -21 -14 -36 -34 -38 -49 -3 -21 -15 -29 -87 -55 -78 -29 -115 -55 -78
-55 9 0 25 -13 37 -30 19 -26 20 -34 9 -72 -15 -56 -64 -100 -159 -145 -41
-20 -95 -52 -120 -73 -25 -20 -84 -55 -132 -77 -158 -75 -380 -205 -653 -386
-264 -175 -337 -227 -243 -174 97 55 209 107 378 175 171 68 471 199 660 289
133 63 453 179 810 293 102 33 237 77 300 99 147 52 338 102 345 91 3 -5 2
-11 -2 -13 -11 -7 -242 -87 -508 -177 -338 -114 -455 -158 -505 -189 -25 -16
-215 -114 -422 -220 -208 -105 -437 -224 -510 -265 -238 -131 -442 -233 -511
-256 -37 -12 -91 -38 -120 -57 -61 -42 -122 -78 -312 -183 -139 -76 -357 -221
-364 -242 -11 -32 51 -26 112 10 18 11 50 25 72 32 65 19 245 114 245 128 0 7
42 33 93 57 96 46 167 65 167 47 0 -12 -8 -18 -123 -93 -43 -28 -88 -65 -100
-81 -12 -16 -85 -72 -163 -123 -77 -52 -147 -101 -154 -110 -15 -18 83 32 195
101 39 23 95 50 125 59 30 9 83 25 118 36 34 10 77 19 96 19 18 0 46 4 62 10
39 13 192 28 464 45 148 9 241 20 273 31 58 20 60 28 5 21 l-43 -6 30 27 30
28 -23 34 c-13 19 -28 37 -34 41 -6 4 -2 15 13 30 13 13 22 31 21 40 -3 19 1
21 128 60 77 23 114 29 195 29 146 0 318 17 413 41 45 11 94 19 110 17 l27 -3
-40 -28 c-106 -74 -261 -161 -393 -223 -175 -80 -260 -126 -244 -132 7 -2 41
6 77 17 35 12 80 21 99 21 25 0 45 9 69 30 19 17 43 30 54 30 11 0 55 18 99
40 76 38 230 80 293 80 16 0 45 7 65 15 25 11 52 13 91 9 40 -5 75 -2 122 11
73 20 293 120 305 139 4 6 8 7 8 3 0 -5 26 5 57 22 31 17 63 31 70 31 17 0 17
29 -2 73 -19 46 -45 61 -71 43 -27 -19 -66 -24 -71 -9 -3 7 4 16 14 20 32 12
91 54 97 70 3 8 -3 35 -15 60 -11 25 -23 71 -26 102 -3 31 -14 72 -25 91 -10
19 -18 42 -18 52 0 9 -9 38 -20 63 -14 32 -18 58 -14 80 3 19 -1 47 -10 70
-17 40 -21 95 -8 95 21 0 42 -39 42 -77 0 -26 8 -50 22 -68 12 -15 25 -46 29
-69 31 -176 81 -358 107 -388 13 -16 17 -16 44 -2 18 10 40 13 59 9 l29 -7
-17 -30 c-17 -27 -22 -29 -60 -25 -24 2 -43 3 -43 0 0 -26 35 -133 45 -137 7
-2 23 6 35 19 23 25 46 24 67 -3 10 -12 21 -12 87 2 41 10 150 41 243 71 92
29 227 65 298 80 198 41 208 44 192 59 -7 7 -24 17 -37 21 -14 4 -28 12 -31
17 -3 5 -70 4 -165 -3 -204 -15 -295 -9 -334 20 -16 11 -43 21 -59 21 -41 0
-81 17 -81 34 0 8 20 32 44 53 32 28 85 54 202 100 409 159 434 165 444 108 4
-22 11 -31 28 -33 12 -2 20 -7 18 -11 -3 -4 10 -22 28 -40 l34 -33 33 18 c19
9 50 30 69 45 59 47 315 189 512 284 173 83 188 92 188 116 0 50 -17 52 -157
25 -70 -13 -155 -27 -188 -31 -33 -3 -81 -11 -107 -16 -52 -12 -76 -5 -58 16
22 27 449 193 606 235 55 15 114 34 130 42 16 9 61 26 99 38 39 13 87 31 107
40 l38 17 -25 11 c-14 7 -37 12 -51 12 -14 0 -23 4 -19 9 14 23 -40 27 -230
20 -110 -5 -290 -11 -400 -14 -148 -5 -248 -14 -385 -36 -102 -16 -197 -29
-212 -29 -51 0 -29 18 30 25 31 4 78 15 104 26 26 10 55 19 66 19 11 0 25 7
32 15 9 10 31 15 74 15 94 0 483 29 529 39 23 6 87 12 142 16 219 13 292 22
315 41 46 40 126 122 143 147 11 17 35 32 68 41 27 8 62 24 77 34 15 11 74 43
132 72 142 71 253 136 275 161 16 17 17 23 7 40 -9 14 -9 25 -2 39 5 10 10 27
10 38 0 102 287 346 498 423 50 18 38 27 -35 27 -38 -1 -122 2 -188 7 -105 6
-122 10 -137 29 -15 19 -31 22 -175 29 -87 4 -218 11 -292 15 l-134 7 49 31
c68 43 97 51 269 69 83 9 179 22 215 29 l65 14 -123 1 c-148 1 -192 16 -192
62 0 43 52 72 230 130 158 51 230 67 230 54 0 -4 -18 -27 -40 -51 -87 -95 -36
-130 250 -171 127 -18 130 -18 215 -14 l60 3 -60 13 c-33 8 -74 14 -91 14 -23
1 -34 7 -42 26 -6 13 -28 35 -49 48 -52 33 -66 52 -59 80 15 61 59 91 259 172
43 17 79 36 80 41 2 17 111 80 187 109 41 16 79 32 83 36 12 10 -413 17 -441
7 -27 -9 -332 -11 -332 -2 0 14 52 48 147 94 93 46 174 68 262 70 11 0 11 3 2
14 -10 12 -6 15 26 18 51 4 52 26 3 60 -50 35 -76 82 -62 113 11 25 103 65
147 65 16 0 38 15 62 41 42 45 89 72 167 97 l51 16 -155 10 c-85 5 -229 9
-320 9 -151 0 -170 -3 -230 -25 -36 -14 -82 -37 -104 -51 -35 -25 -40 -25 -66
-12 -53 27 -150 163 -150 210 0 19 39 20 88 0 34 -13 35 -13 15 2 -13 8 -23
25 -23 36 0 11 -7 28 -16 38 -26 29 -11 64 35 83 39 15 90 16 259 2 57 -4 58
-3 95 54 28 43 106 74 251 99 70 12 94 20 80 25 -32 13 -221 28 -371 29 -155
2 -184 11 -136 42 15 10 33 24 38 30 6 6 81 30 167 53 128 34 189 45 335 57
98 9 201 19 228 23 l50 8 -55 8 c-30 5 -86 19 -125 33 -38 13 -106 27 -150 31
-74 7 -85 11 -155 58 -88 60 -172 104 -198 104 -10 0 -58 -13 -106 -30 -128
-43 -261 -69 -410 -81 -123 -10 -135 -9 -187 11 -71 26 -96 52 -82 83 6 12 14
30 17 40 4 13 18 17 68 19 35 0 74 2 88 4 21 2 108 10 144 13 6 1 1 7 -9 15
-18 13 -16 15 30 21 28 4 66 10 85 14 l35 7 -2 66 c-1 38 -11 87 -23 119 -24
61 -21 108 11 140 15 15 33 19 97 19 l77 0 -53 25 c-71 33 -64 49 24 55 57 4
65 7 44 14 -38 14 -122 10 -184 -10 l-55 -17 -128 31 c-70 17 -172 38 -225 46
-54 8 -110 21 -125 29 -51 27 -286 69 -378 68 -33 -1 -66 3 -73 8 -19 11 141
35 171 25 12 -4 47 -8 77 -9 30 -1 105 -7 165 -13 81 -9 141 -9 230 -1 66 6
152 9 191 6 39 -3 77 -1 85 4 10 6 4 9 -20 9 -19 0 -48 4 -65 9 -17 5 -49 14
-71 20 -46 12 -108 65 -103 89 2 11 19 19 47 24 79 13 68 27 -17 21 l-79 -6
-69 45 c-189 123 -318 261 -261 281 9 3 9 7 -1 20 -12 14 -5 20 58 52 82 41
85 61 6 50 -55 -8 -57 -8 -307 -2 l-167 3 -72 65 c-40 35 -92 88 -116 117
l-44 54 0 91 0 90 47 44 c33 30 56 43 77 43 70 0 238 -35 320 -66 101 -39 103
-39 85 -18 -33 40 -138 73 -439 139 -218 47 -477 84 -665 94 -112 5 -169 12
-190 23 -16 9 -73 25 -125 37 -192 43 -220 50 -237 60 -15 8 -14 11 12 18 47
13 605 8 639 -6 22 -9 46 -9 101 0 54 9 98 10 180 1 60 -6 110 -10 112 -9 1 1
-94 38 -210 81 -117 44 -237 90 -267 103 -59 26 -284 82 -465 114 -156 29
-213 65 -138 89 61 20 64 31 8 29 -53 -1 -146 21 -171 41 -21 18 -17 39 9 49
183 71 365 120 447 122 33 0 34 1 10 10 -34 14 -339 5 -500 -15 -385 -47 -554
-76 -755 -131 -229 -62 -305 -76 -305 -55 0 6 5 10 12 10 6 0 27 12 47 27 57
44 146 82 276 118 66 19 154 45 195 59 41 14 100 30 130 36 69 14 282 80 294
91 19 17 -57 21 -369 18 -258 -3 -324 -2 -320 8 11 29 -271 2 -393 -37 -35
-11 -77 -20 -92 -20 -31 0 -47 14 -29 26 8 4 7 9 -2 15 -11 7 -2 20 36 54 28
24 64 49 80 55 17 7 89 38 160 71 152 69 220 88 332 96 138 10 82 23 -96 23
-233 0 -341 -19 -566 -101 -138 -51 -319 -89 -455 -98 -61 -3 -104 -10 -103
-16 1 -5 5 -18 8 -27 5 -13 -2 -23 -27 -38 -50 -30 -89 -38 -248 -50 -295 -21
-271 -16 -373 -84 -51 -34 -199 -140 -330 -235 -259 -188 -301 -215 -318 -209
-29 10 363 331 556 456 55 36 132 88 170 117 39 29 86 58 105 65 19 7 43 20
52 28 10 8 41 23 70 33 39 14 44 17 18 13 -19 -3 -75 -23 -125 -44 -49 -21
-164 -63 -255 -95 -261 -90 -438 -189 -618 -347 -30 -26 -59 -45 -63 -42 -19
11 -8 63 21 102 35 48 91 92 173 133 41 21 57 35 57 50 0 36 18 56 120 135 97
74 121 96 81 74 -11 -5 -28 -10 -37 -10 -10 0 -74 -38 -143 -84 -69 -47 -174
-112 -232 -145 -59 -33 -173 -104 -254 -158 -191 -128 -197 -131 -202 -116 -3
9 -12 7 -31 -6 -15 -10 -60 -37 -99 -60 -43 -24 -79 -53 -87 -69 -8 -15 -46
-67 -85 -115 -39 -49 -78 -104 -86 -123 -10 -25 -20 -34 -37 -34 -33 1 -83 44
-74 65 3 10 2 23 -4 30 -17 21 -2 58 50 121 27 32 57 80 65 105 9 28 39 72 73
110 l57 63 -63 -44 c-95 -68 -121 -83 -138 -76 -13 5 -13 9 0 33 20 39 253
265 356 346 83 65 110 79 110 55 0 -6 12 0 28 14 15 14 95 69 177 123 170 110
160 103 153 111 -8 8 -82 -32 -233 -125 -71 -44 -134 -76 -138 -71 -11 10
-205 -97 -419 -230 -185 -115 -327 -231 -483 -391 -92 -95 -119 -130 -158
-206 -26 -51 -56 -97 -66 -102 -10 -6 -62 -46 -116 -90 -93 -76 -161 -119
-171 -108 -9 9 47 142 93 221 116 201 380 533 503 632 33 27 60 52 60 55 0 4
-7 12 -15 19 -13 10 -13 15 0 40 22 42 199 196 279 242 39 23 88 52 108 64 21
13 59 32 85 43 26 10 101 42 165 70 65 28 121 51 126 51 13 0 348 156 426 199
46 25 152 64 303 110 313 96 461 162 653 292 94 63 184 151 195 189 4 14 22
57 40 95 43 92 55 131 33 110z m557 -1355 c-10 -11 -44 -28 -74 -36 -51 -15
-130 -53 -218 -106 -44 -26 -41 -10 8 46 46 52 103 86 146 86 15 0 51 7 78 14
73 21 82 20 60 -4z m-1999 -520 c-36 -39 -66 -74 -66 -79 0 -13 -58 -34 -75
-27 -13 5 -14 9 -3 30 29 54 151 144 197 146 7 0 -16 -32 -53 -70z m1270 -49
c-7 -11 -95 -53 -152 -71 -56 -18 -351 -188 -399 -229 -11 -10 -36 -24 -55
-31 -35 -14 -69 -42 -260 -216 l-105 -95 -50 7 c-27 4 -81 9 -120 13 l-70 6
136 117 135 117 190 82 c104 45 271 119 370 165 164 76 374 158 383 149 1 -2
0 -8 -3 -14z m-1456 -51 c0 -33 -3 -40 -19 -40 -28 0 -31 21 -9 53 11 15 21
27 24 27 2 0 4 -18 4 -40z m-770 -95 c0 -3 -9 -23 -20 -45 -11 -22 -20 -53
-20 -69 0 -16 -6 -42 -14 -58 -8 -15 -19 -47 -25 -70 -12 -43 -63 -94 -141
-142 -45 -27 -58 -26 -66 3 -7 29 20 82 76 151 22 28 52 70 68 95 46 74 142
166 142 135z m-889 -90 c-17 -43 -59 -118 -92 -168 -126 -188 -151 -258 -185
-507 l-16 -124 25 -21 26 -20 -35 -47 c-19 -27 -45 -50 -59 -54 -23 -6 -25
-10 -20 -36 6 -27 5 -29 -13 -24 -17 6 -31 -8 -81 -73 -34 -44 -65 -82 -70
-85 -18 -11 -20 25 -6 116 16 106 55 224 91 277 13 19 24 39 24 43 0 5 23 59
51 121 28 61 60 136 70 166 20 57 58 130 142 271 62 104 167 253 174 247 2 -3
-9 -40 -26 -82z m6184 -157 c14 -6 25 -19 25 -29 0 -20 4 -20 -78 12 -13 5
-20 13 -17 19 8 13 38 13 70 -2z m284 -25 c58 -9 71 -23 31 -33 -14 -4 -45
-19 -68 -34 -23 -14 -50 -26 -60 -26 -39 0 -133 84 -119 107 6 9 102 3 216
-14z m-2872 -168 c132 -16 257 -39 358 -65 86 -22 172 -40 193 -41 l37 -1 -45
-10 c-25 -5 -88 -7 -140 -5 -105 5 -427 -7 -645 -24 -245 -18 -454 -49 -688
-100 -126 -28 -231 -48 -233 -46 -3 2 22 29 54 58 41 39 103 77 219 136 135
70 172 84 234 93 41 6 92 17 114 25 57 21 290 12 542 -20z m789 -169 c10 -8
16 -17 13 -20 -8 -9 -179 15 -179 25 0 15 144 10 166 -5z m-2468 -294 c9 -7 8
-13 -8 -27 -24 -21 -77 -22 -117 -1 l-27 14 54 10 c72 13 83 13 98 4z m-398
-208 c22 -25 -9 -48 -54 -40 -34 7 -54 22 -43 33 5 4 52 18 78 22 4 1 12 -6
19 -15z m-140 -114 c0 -5 -27 -38 -60 -74 -41 -43 -69 -84 -84 -124 -13 -32
-44 -93 -70 -135 -56 -94 -72 -133 -85 -217 -6 -36 -13 -75 -17 -87 -6 -22 -4
-23 67 -23 41 0 92 5 114 10 22 6 97 13 168 17 134 6 153 0 102 -33 -33 -21
-107 -174 -134 -274 -23 -83 -41 -286 -41 -452 0 -123 11 -111 -120 -128 -47
-6 -148 -22 -225 -35 -77 -14 -180 -29 -230 -35 -49 -6 -183 -33 -298 -60
-204 -49 -236 -55 -225 -45 11 11 447 127 618 164 97 21 202 49 234 62 52 21
60 28 62 54 2 17 8 72 14 124 7 63 7 98 0 106 -14 16 15 222 42 295 24 69 59
128 92 159 14 14 26 29 26 34 0 13 -116 3 -318 -29 -90 -14 -167 -22 -170 -19
-8 7 15 72 85 238 38 92 65 139 118 207 38 48 85 98 105 111 19 13 73 63 118
111 76 80 112 105 112 78z m6272 -124 c10 -14 10 -36 1 -36 -5 0 -24 14 -43
31 l-35 30 35 -7 c19 -3 38 -12 42 -18z m-7852 -16 c0 -5 -8 -10 -17 -10 -15
0 -16 2 -3 10 19 12 20 12 20 0z m-759 -29 c-16 -22 -29 -29 -55 -29 -55 0
-53 25 2 42 71 21 76 20 53 -13z m649 19 c0 -5 -7 -10 -16 -10 -8 0 -12 5 -9
10 3 6 10 10 16 10 5 0 9 -4 9 -10z m541 -17 c-5 -10 -35 -43 -65 -73 -40 -38
-61 -69 -72 -105 -9 -27 -30 -65 -45 -83 -16 -18 -29 -37 -29 -42 0 -5 -23
-37 -51 -72 -28 -35 -55 -72 -59 -84 -10 -26 -188 -126 -300 -169 -114 -43
-269 -90 -276 -83 -8 8 24 79 45 103 11 11 22 34 25 50 4 17 22 47 41 67 40
43 232 178 253 178 20 0 274 134 342 181 30 21 74 58 97 83 45 47 70 65 91 66
9 0 10 -5 3 -17z m-1600 -43 c13 -18 17 -19 74 -5 71 17 99 19 90 5 -3 -5 -19
-10 -35 -10 -16 0 -36 -7 -44 -16 -9 -8 -24 -14 -33 -13 -10 1 -34 -5 -53 -13
-19 -9 -48 -18 -65 -21 -16 -4 -24 -4 -17 -1 14 7 17 54 2 54 -20 0 -9 16 18
27 40 16 48 15 63 -7z m214 10 c13 -6 15 -9 5 -9 -8 0 -22 4 -30 9 -18 12 -2
12 25 0z m8220 0 c-3 -5 -17 -10 -31 -10 -13 0 -24 5 -24 10 0 6 14 10 31 10
17 0 28 -4 24 -10z m-8487 -167 c10 -17 -4 -63 -19 -63 -11 0 -33 40 -35 63
-2 23 42 23 54 0z m4045 -652 c46 -11 54 -18 39 -33 -9 -9 -27 -7 -74 7 -35
10 -70 22 -78 26 -21 11 65 11 113 0z m-343 -45 c52 -19 129 -45 169 -58 79
-26 103 -48 53 -48 -23 0 -313 119 -331 136 -11 10 22 1 109 -30z m5490 -92
c-52 -8 -104 -13 -115 -11 -18 3 -18 5 5 15 14 6 66 10 115 10 l90 -1 -95 -13z
m425 6 c8 -13 -45 -13 -65 0 -11 7 -6 10 22 10 20 0 40 -4 43 -10z m-357 -123
c-35 -29 -73 -114 -58 -132 9 -11 -2 -14 -52 -17 -87 -5 -148 8 -175 38 -30
32 -29 45 5 76 18 18 44 29 77 34 28 4 59 10 70 15 11 4 52 8 90 8 l70 1 -27
-23z m-7313 -524 c9 -108 -1 -384 -16 -482 -5 -36 -25 -110 -43 -165 -32 -101
-177 -439 -184 -431 -5 4 67 211 127 368 52 134 76 288 67 422 -20 279 -20
291 4 340 12 25 25 45 30 45 4 0 11 -44 15 -97z m855 -7 c0 -98 -11 -116 -69
-116 -43 0 -100 -21 -145 -53 l-29 -21 19 33 c17 30 210 241 220 241 2 0 4
-38 4 -84z m3788 -194 c7 -5 10 -16 6 -26 -10 -26 -63 -4 -64 27 0 10 42 9 58
-1z m2933 -157 c0 -6 -31 -15 -69 -22 -39 -6 -80 -17 -92 -23 -20 -11 -20 -13
-6 -29 44 -49 1 -52 -116 -9 -81 29 -85 33 -67 54 22 27 59 35 184 41 66 3
122 7 123 8 7 7 43 -11 43 -20z m-10466 -250 c-11 -8 -65 -45 -120 -81 -134
-89 -132 -87 -177 -179 -21 -44 -45 -91 -53 -105 -8 -14 -18 -42 -21 -62 -7
-40 -29 -67 -43 -52 -5 5 -12 56 -15 114 l-7 105 68 51 c37 29 79 58 93 65 14
8 43 28 65 45 79 60 179 113 215 113 11 0 10 -4 -5 -14z m3704 -167 c1 -66 -9
-85 -27 -52 -6 11 -11 13 -16 5 -4 -6 -22 -11 -40 -11 -18 0 -59 -9 -91 -20
-32 -11 -61 -18 -64 -14 -14 14 52 107 133 189 l90 90 7 -60 c4 -33 7 -90 8
-127z m6789 -2 c8 -9 -10 -26 -28 -26 -10 0 -22 -5 -25 -10 -11 -18 -68 -43
-141 -61 -39 -10 -116 -38 -172 -62 -56 -25 -102 -43 -102 -41 0 3 29 43 65
91 36 47 65 92 65 99 0 7 8 15 18 17 20 6 313 -1 320 -7z m-6782 -422 c2 -63
-2 -71 -39 -91 -17 -8 -37 -22 -44 -29 -19 -18 -142 -54 -187 -54 -45 0 -46
17 -2 35 50 21 113 66 186 134 36 33 70 59 75 57 6 -1 11 -25 11 -52z m-6
-374 l0 -79 -32 -17 c-18 -9 -54 -31 -79 -49 -57 -40 -174 -75 -254 -75 l-58
0 19 21 c10 11 32 26 49 34 16 7 100 65 185 129 85 64 158 116 163 116 4 0 7
-36 7 -80z m6107 -86 c20 -6 16 -11 -38 -45 -38 -25 -71 -39 -92 -39 -20 0
-47 -10 -68 -26 -65 -49 -164 -102 -221 -118 -54 -16 -57 -19 -63 -56 l-7 -40
-53 0 c-30 0 -56 4 -59 8 -6 11 42 47 152 113 83 51 130 99 158 166 10 22 22
33 41 36 45 7 226 7 250 1z m-1949 -1081 c13 -12 14 -17 4 -21 -7 -2 -58 -26
-113 -53 -147 -72 -223 -66 -91 7 37 21 83 48 102 61 41 27 75 29 98 6z m336
-249 c23 -23 20 -54 -5 -54 -11 0 -17 -4 -14 -10 16 -26 -52 -59 -132 -64 -18
-2 -38 -7 -45 -13 -12 -10 -65 -23 -118 -28 -14 -2 -34 -5 -44 -7 -27 -4 -46
51 -22 64 9 5 16 16 16 24 0 8 15 21 33 29 28 12 35 12 55 -1 26 -17 52 -12
52 10 0 29 56 35 65 7 14 -44 80 -34 105 15 12 24 28 43 37 44 1 0 9 -7 17
-16z m-142 -215 c13 -20 17 -21 51 -8 43 15 46 13 54 -34 6 -38 -7 -51 -61
-61 -14 -3 -43 -19 -63 -35 -21 -17 -44 -31 -51 -31 -23 0 -47 33 -47 64 0 22
-5 32 -19 34 -10 2 -22 -2 -27 -9 -6 -10 -13 -10 -34 -1 -14 7 -37 12 -50 12
-43 0 -29 28 18 35 23 4 52 13 64 21 12 8 37 14 55 14 18 0 40 5 48 10 24 16
47 12 62 -11z m-237 -145 c51 -24 55 -28 42 -42 -13 -13 -21 -13 -46 -3 -16 7
-34 10 -39 7 -14 -8 -45 31 -39 49 8 20 15 19 82 -11z m-201 -422 c11 -6 -50
-32 -75 -32 -24 0 -35 20 -18 31 14 9 77 10 93 1z m493 -9 c-9 -9 -20 -13 -24
-9 -4 4 -1 11 7 16 25 16 35 11 17 -7z m-1060 -38 c3 -10 -117 -83 -159 -98
-15 -5 -16 -1 -11 25 l6 31 -34 -26 c-49 -37 -118 -67 -157 -67 -18 0 -99 -13
-180 -30 -139 -27 -192 -30 -192 -9 0 11 23 21 170 80 224 89 228 90 360 99
152 9 192 8 197 -5z"/>
<path d="M5190 16815 c0 -17 5 -25 18 -25 10 0 23 -5 28 -10 13 -13 54 1 74
25 20 24 -1 35 -67 35 -50 0 -53 -1 -53 -25z"/>
<path d="M5010 16615 c0 -8 5 -15 10 -15 6 0 10 7 10 15 0 8 -4 15 -10 15 -5
0 -10 -7 -10 -15z"/>
<path d="M4294 16272 c-21 -16 -46 -37 -54 -48 -14 -17 12 0 89 58 39 30 7 20
-35 -10z"/>
<path d="M2686 14759 c-16 -60 -15 -83 3 -63 10 9 27 124 19 124 -3 0 -12 -28
-22 -61z"/>
<path d="M2810 13910 c0 -5 5 -10 10 -10 6 0 10 5 10 10 0 6 -4 10 -10 10 -5
0 -10 -4 -10 -10z"/>
<path d="M13301 10939 c-29 -10 -123 -37 -207 -61 l-154 -41 -21 -64 c-12 -38
-56 -117 -106 -193 -47 -71 -82 -134 -78 -140 14 -23 66 10 202 132 29 25 86
67 127 93 67 43 77 53 111 121 43 84 78 124 109 124 11 0 44 11 71 24 40 19
45 24 25 24 -14 1 -49 -8 -79 -19z"/>
<path d="M808 10113 c7 -3 16 -2 19 1 4 3 -2 6 -13 5 -11 0 -14 -3 -6 -6z"/>
<path d="M848 10103 c6 -2 18 -2 25 0 6 3 1 5 -13 5 -14 0 -19 -2 -12 -5z"/>
<path d="M890 10096 c0 -7 179 -48 192 -44 7 3 -28 15 -78 26 -91 22 -114 25
-114 18z"/>
<path d="M12609 9902 c-5 -2 -47 -61 -94 -131 -88 -135 -164 -214 -276 -289
-33 -22 -66 -43 -72 -45 -7 -2 -9 -7 -6 -11 11 -11 312 153 354 193 41 39 181
137 213 148 9 3 67 36 129 72 89 52 107 67 88 69 -13 2 -42 -6 -64 -17 -48
-25 -51 -25 -51 -7 0 12 -22 15 -105 18 -58 2 -110 1 -116 0z"/>
<path d="M1070 9850 c13 -9 109 -15 99 -6 -2 2 -29 6 -59 10 -38 4 -50 3 -40
-4z"/>
<path d="M1198 9833 c6 -2 18 -2 25 0 6 3 1 5 -13 5 -14 0 -19 -2 -12 -5z"/>
<path d="M1258 9823 c7 -3 16 -2 19 1 4 3 -2 6 -13 5 -11 0 -14 -3 -6 -6z"/>
<path d="M1474 9785 c104 -19 232 -43 283 -54 52 -12 110 -21 131 -20 41 1
-37 17 -363 74 -110 19 -209 35 -220 34 -11 0 65 -16 169 -34z"/>
<path d="M1948 9703 c12 -2 32 -2 45 0 12 2 2 4 -23 4 -25 0 -35 -2 -22 -4z"/>
<path d="M11459 9470 c-15 -4 -90 -20 -167 -35 -117 -23 -139 -30 -135 -44 3
-12 17 -17 49 -19 41 -1 128 29 279 98 25 11 9 11 -26 0z"/>
<path d="M16749 9154 c-41 -36 -114 -103 -164 -148 -49 -45 -124 -107 -165
-138 -82 -62 -222 -203 -455 -457 -313 -343 -528 -559 -754 -759 -128 -114
-270 -234 -315 -267 -135 -98 -189 -146 -177 -158 29 -29 -7 -105 -81 -172
-64 -58 -54 -51 82 51 103 77 644 524 790 653 196 173 548 523 654 650 63 76
126 145 140 154 25 17 26 17 42 -15 14 -27 16 -50 11 -128 -4 -52 -9 -106 -13
-120 -3 -14 16 8 46 50 69 101 180 333 218 455 17 55 43 117 57 137 13 20 22
43 19 51 -7 21 17 65 73 134 96 117 96 119 -8 27z"/>
<path d="M7675 9123 c-55 -31 -136 -72 -180 -90 -87 -37 -259 -132 -252 -140
3 -2 45 3 94 10 82 14 97 20 202 86 96 60 140 93 246 183 27 23 -21 2 -110
-49z"/>
<path d="M12635 9083 c-33 -1 -87 -5 -121 -8 l-61 -6 11 -33 10 -33 56 13 c30
7 79 23 109 34 30 12 72 24 95 27 23 3 43 7 45 9 4 4 -19 3 -144 -3z"/>
<path d="M12024 9060 c-20 -8 -64 -82 -64 -107 0 -6 28 -14 62 -17 45 -5 66
-13 76 -27 7 -10 22 -19 33 -19 23 0 23 2 1 -40 -19 -39 -40 -41 -81 -9 -28
22 -38 23 -71 6 -44 -23 -87 -27 -123 -12 l-34 14 -74 -75 c-40 -41 -68 -74
-62 -74 7 0 14 4 18 9 3 5 20 13 38 16 17 4 65 23 105 42 41 19 78 33 84 31 5
-2 -41 -37 -104 -77 -142 -93 -263 -184 -250 -189 16 -5 276 95 377 146 160
80 246 133 256 159 6 17 14 23 25 19 10 -4 35 12 72 48 48 47 54 56 39 62 -13
4 -23 0 -33 -15 -16 -23 -53 -28 -71 -10 -9 9 -8 19 3 40 12 23 21 29 49 29
27 0 36 5 49 30 l14 30 -156 -1 c-86 0 -167 -4 -178 -9z"/>
<path d="M11889 8924 c-9 -11 -8 -14 9 -14 27 0 48 25 22 27 -10 1 -24 -5 -31
-13z"/>
<path d="M10293 8673 c-24 -5 -41 -39 -26 -54 6 -6 20 -6 37 1 15 5 54 10 87
10 44 0 61 4 65 15 4 8 10 15 16 15 5 0 6 -4 3 -10 -8 -13 41 -13 66 0 10 6
19 15 19 20 0 8 -224 11 -267 3z"/>
<path d="M11790 7969 c-101 -28 -170 -39 -363 -59 -155 -15 -301 -77 -357
-151 -37 -49 -151 -153 -226 -206 -26 -18 -40 -33 -33 -33 32 0 320 126 389
170 25 16 96 45 159 65 63 21 173 64 245 97 179 82 294 128 320 128 17 0 18 2
6 10 -19 12 -15 13 -140 -21z"/>
<path d="M8218 7883 c-83 -21 -98 -28 -98 -45 0 -16 3 -18 14 -9 8 7 58 27
112 46 117 40 106 43 -28 8z"/>
<path d="M7765 7861 c-92 -7 -100 -9 -195 -67 -30 -18 -83 -40 -118 -50 -34
-9 -61 -19 -58 -21 2 -2 50 8 107 23 57 14 136 32 174 39 100 19 337 74 343
80 7 6 -132 4 -253 -4z"/>
<path d="M14874 7749 c-55 -39 -112 -83 -129 -99 -16 -15 -95 -71 -175 -125
-147 -99 -238 -141 -325 -150 -23 -3 -62 -13 -86 -23 -24 -10 -75 -29 -114
-42 -38 -12 -74 -25 -79 -28 -21 -12 32 -24 146 -33 68 -5 140 -14 162 -20 36
-10 41 -8 108 36 38 25 130 104 204 176 74 71 139 129 143 129 5 0 23 11 39
25 34 28 217 225 209 225 -2 0 -49 -32 -103 -71z"/>
<path d="M7285 7700 c-18 -8 -18 -9 5 -9 14 0 34 4 45 9 18 8 18 9 -5 9 -14 0
-34 -4 -45 -9z"/>
<path d="M7060 7636 c-69 -23 -169 -57 -223 -75 -54 -18 -97 -35 -95 -37 8 -7
307 76 382 106 41 17 79 30 85 30 6 0 11 5 11 10 0 17 -30 10 -160 -34z"/>
<path d="M7825 7619 c-70 -17 -228 -49 -322 -66 -31 -5 -68 -33 -44 -33 45 0
496 103 510 116 11 10 -72 1 -144 -17z"/>
<path d="M16394 7437 c-50 -67 -134 -192 -187 -277 -141 -224 -242 -368 -360
-510 -433 -520 -1277 -1351 -1503 -1480 -70 -41 -438 -393 -547 -524 -64 -76
-99 -110 -133 -127 -25 -12 -96 -66 -158 -121 -61 -54 -136 -113 -166 -130
-65 -36 -414 -274 -539 -367 -47 -36 -129 -93 -181 -126 -52 -34 -120 -83
-150 -109 -90 -77 -442 -316 -635 -431 -99 -60 -299 -170 -445 -245 -146 -76
-310 -163 -365 -194 -239 -133 -665 -352 -838 -431 -425 -193 -595 -261 -610
-246 -16 16 7 36 73 65 33 15 83 43 112 62 29 18 56 34 60 34 8 0 118 70 118
75 0 2 -48 -21 -107 -50 -379 -187 -1205 -547 -1388 -605 -22 -7 -165 -57
-317 -111 -275 -98 -579 -194 -838 -264 -74 -20 -209 -61 -300 -90 -91 -29
-286 -85 -435 -124 -423 -110 -748 -198 -888 -241 -71 -22 -138 -40 -148 -40
-25 0 -33 17 -12 28 53 27 388 132 678 212 182 50 420 116 530 146 110 31 295
86 410 124 116 38 266 84 335 104 215 60 602 190 955 322 187 69 367 135 400
147 33 11 67 26 75 33 8 7 29 16 45 20 17 3 37 12 45 19 8 7 33 19 55 26 22 7
47 18 55 25 8 6 51 25 95 42 44 17 171 74 282 127 110 52 210 95 220 95 10 0
39 11 65 25 26 14 56 25 67 25 11 0 22 4 26 9 8 14 607 317 663 335 98 33 497
244 667 352 61 39 131 83 157 99 41 26 44 31 30 41 -15 11 -15 14 3 35 11 12
43 33 70 46 91 43 200 104 235 132 19 15 79 56 132 91 54 36 98 71 98 77 0 7
18 22 40 33 23 12 58 36 78 54 20 18 72 56 115 85 42 28 77 54 77 56 0 3 -24
-5 -52 -17 -129 -52 -329 -98 -429 -98 -49 0 -49 0 -49 -33 0 -18 -10 -48 -23
-67 -13 -19 -24 -45 -24 -57 -3 -41 -80 -140 -143 -183 -71 -48 -305 -154
-440 -199 -52 -18 -142 -39 -200 -47 -125 -17 -186 -29 -260 -49 -30 -8 -74
-15 -98 -15 -23 0 -53 -6 -65 -14 -24 -14 -202 -40 -218 -31 -5 4 -9 13 -9 21
0 20 510 528 552 550 68 35 309 202 474 328 204 156 304 230 318 235 6 2 -14
-22 -44 -54 -55 -57 -55 -57 -19 -42 54 22 191 110 324 207 122 90 249 211
323 310 22 30 63 72 90 93 28 21 67 59 88 84 47 57 99 105 195 181 176 139
502 484 670 712 115 154 137 190 119 190 -17 0 -11 38 8 52 10 7 21 21 25 31
5 13 -5 9 -35 -15 -128 -103 -218 -166 -223 -158 -3 5 3 17 15 27 11 10 20 22
20 27 0 12 160 224 186 248 11 9 60 38 109 64 50 26 172 103 273 171 101 67
188 123 193 123 18 0 142 92 209 155 36 33 110 99 165 147 97 83 156 141 125
123 -8 -5 -41 -26 -73 -46 -35 -23 -77 -41 -105 -45 -73 -11 -92 -21 -162 -88
-115 -110 -259 -219 -510 -386 -252 -168 -329 -210 -381 -210 -38 0 -30 14 21
40 52 27 162 125 399 359 108 106 259 250 336 321 157 143 266 253 285 289
l12 24 -28 -20 c-16 -12 -38 -31 -49 -43 -11 -13 -92 -78 -181 -145 -88 -68
-166 -131 -174 -140 -39 -47 -294 -266 -397 -341 -132 -97 -169 -118 -178
-104 -15 24 47 95 200 228 32 28 39 37 20 26 -37 -21 -141 -103 -188 -147 -55
-52 -111 -95 -302 -230 -99 -70 -205 -147 -235 -172 -30 -24 -165 -117 -300
-206 -188 -124 -295 -186 -463 -269 -298 -148 -527 -244 -527 -221 0 12 324
220 494 318 59 34 147 91 163 107 7 7 9 16 4 25 -14 22 -98 -12 -204 -82 -50
-34 -144 -89 -207 -123 -300 -160 -423 -237 -494 -313 -17 -17 -35 -31 -41
-31 -14 0 -105 -78 -105 -89 0 -5 35 -14 78 -20 111 -18 116 -19 100 -39 -22
-27 -387 -262 -508 -327 -63 -34 -143 -78 -177 -98 -89 -51 -210 -104 -268
-118 -113 -27 -311 -107 -267 -108 12 -1 25 -8 28 -16 10 -25 -15 -80 -51
-115 -19 -19 -35 -40 -35 -47 0 -28 -139 -158 -358 -336 -60 -48 -289 -184
-457 -272 -128 -67 -133 -70 -305 -239 -96 -94 -269 -254 -385 -356 -115 -102
-223 -199 -240 -216 -16 -16 -41 -36 -55 -43 -36 -17 -126 -98 -119 -105 4 -4
19 -8 35 -9 24 -2 30 2 32 23 6 40 15 42 76 15 68 -30 81 -31 103 -5 19 22 44
27 41 8 -2 -7 -9 -18 -17 -24 -8 -6 -12 -20 -8 -33 3 -13 -1 -28 -11 -37 -15
-16 -26 -15 -108 1 -28 6 -31 4 -46 -33 -13 -35 -20 -40 -57 -46 -23 -3 -59
-2 -79 3 -20 5 -57 9 -82 10 -43 2 -53 -4 -232 -137 -103 -77 -249 -179 -325
-227 -76 -48 -174 -113 -218 -145 -44 -31 -90 -62 -101 -68 -26 -14 -107 -2
-96 13 4 6 45 35 92 65 91 57 344 243 355 259 11 20 -34 30 -124 30 l-91 -1
-43 38 c-24 22 -56 48 -72 60 -28 20 -29 23 -18 57 7 25 8 39 1 43 -19 12 16
24 52 18 38 -6 54 5 62 41 2 11 9 19 15 18 50 -10 122 -18 141 -15 13 2 27 14
32 26 12 32 35 38 99 26 92 -17 133 -32 189 -67 29 -18 56 -33 60 -33 16 0 74
69 67 80 -4 6 -2 17 4 24 6 7 9 20 6 27 -3 8 -1 19 3 25 14 22 73 45 111 43
26 -2 46 4 63 17 30 24 206 180 428 381 158 142 414 402 405 411 -2 3 -22 -7
-43 -21 -21 -14 -76 -44 -120 -66 -63 -32 -82 -38 -82 -26 0 24 376 410 455
467 39 29 116 89 173 135 57 46 114 90 127 99 14 9 25 21 25 28 0 72 58 138
193 222 51 32 103 67 117 79 35 32 219 162 323 229 76 50 131 77 236 117 47
19 13 18 -65 -1 -105 -25 -109 -27 -319 -154 -404 -245 -545 -321 -857 -465
-87 -40 -110 -47 -123 -37 -15 11 -14 14 6 40 12 16 43 42 68 57 25 16 40 29
34 29 -5 0 -64 -11 -129 -24 -66 -13 -148 -27 -184 -30 -52 -6 -77 -15 -128
-48 -35 -23 -72 -52 -82 -66 -11 -13 -20 -22 -20 -18 0 4 -13 -2 -29 -13 -32
-23 -41 -26 -41 -11 0 17 60 78 105 107 25 15 45 33 45 39 0 6 18 19 39 29 22
9 37 23 35 29 -7 19 20 37 166 113 74 38 207 114 295 168 169 105 305 168 341
159 24 -6 70 15 121 54 29 21 41 24 100 21 l68 -4 35 66 c47 90 82 130 326
380 154 158 214 225 219 248 4 17 17 44 29 59 12 15 37 49 55 75 24 35 60 67
130 112 53 34 179 128 281 209 102 80 235 185 296 233 62 49 108 89 103 91 -9
4 -242 -127 -404 -226 -49 -30 -121 -81 -160 -112 -38 -31 -117 -92 -175 -135
-58 -43 -139 -106 -180 -140 -91 -75 -130 -101 -130 -87 0 5 15 19 33 31 98
63 -119 -28 -372 -156 -159 -80 -191 -93 -191 -74 0 10 404 281 419 281 24 0
196 81 302 142 197 113 434 278 410 286 -18 6 -129 -53 -219 -116 -69 -49
-317 -182 -338 -182 -15 0 25 36 73 67 29 18 53 35 53 36 0 2 -118 -56 -262
-128 -145 -71 -255 -131 -245 -133 23 -4 22 -19 -2 -27 -10 -3 -62 -48 -114
-99 -110 -109 -156 -141 -367 -261 -252 -144 -354 -182 -525 -200 -74 -7 -98
4 -71 34 18 20 18 20 -8 27 -17 4 -26 13 -26 25 0 17 -9 15 -76 -21 -73 -38
-117 -49 -128 -32 -3 5 20 24 50 43 86 54 95 62 85 79 -12 17 -46 4 -284 -107
-87 -41 -187 -80 -225 -88 -37 -8 -93 -23 -124 -35 -32 -11 -63 -20 -69 -20
-7 0 -113 -36 -236 -81 -279 -100 -489 -155 -673 -174 -36 -4 -92 -17 -125
-30 -33 -13 -85 -26 -115 -30 -62 -8 -449 -91 -483 -104 -20 -8 -18 -11 27
-30 63 -28 55 -36 -14 -15 -69 20 -151 12 -513 -53 -58 -11 -23 -34 113 -76
47 -15 90 -30 97 -35 16 -10 -7 -109 -37 -157 -12 -20 -50 -59 -84 -87 -33
-28 -87 -78 -118 -113 -60 -65 -186 -165 -353 -280 -127 -87 -133 -92 -60 -60
60 27 126 33 279 25 26 -1 56 8 95 27 42 23 63 28 83 22 37 -10 124 14 153 41
20 19 28 20 60 11 43 -11 121 9 191 51 31 18 52 22 102 21 66 -2 132 -18 132
-33 0 -5 -9 -14 -20 -20 -24 -13 -16 -40 14 -40 33 -1 105 -37 135 -69 15 -16
46 -34 70 -41 23 -6 44 -17 47 -25 3 -8 28 -24 55 -36 72 -33 79 -71 14 -83
-19 -4 -60 -18 -92 -33 -32 -14 -112 -36 -178 -50 -66 -13 -138 -30 -160 -37
-22 -8 -67 -20 -100 -27 -33 -7 -76 -20 -95 -30 -19 -9 -62 -22 -94 -29 -72
-15 -104 -27 -133 -53 -19 -17 -27 -18 -95 -7 -62 10 -83 9 -138 -5 -36 -10
-99 -23 -140 -30 -104 -17 -159 -31 -226 -56 -49 -18 -62 -20 -90 -10 -19 7
-53 9 -86 5 l-55 -6 -11 32 c-10 27 -16 31 -34 26 -13 -3 -32 -6 -44 -6 -12 0
-42 -18 -67 -40 -57 -50 -77 -52 -77 -6 0 44 -19 60 -47 41 -28 -20 -47 -78
-39 -120 9 -47 -8 -52 -50 -16 -38 34 -65 39 -85 15 -7 -8 -26 -22 -42 -31
-27 -14 -31 -14 -39 1 -13 23 -68 21 -68 -2 0 -10 -16 -35 -35 -55 -19 -20
-35 -44 -35 -52 0 -8 -9 -15 -20 -15 -11 0 -20 7 -20 15 0 10 -10 15 -29 15
-33 0 -47 -15 -42 -44 2 -17 -2 -18 -51 -13 -55 7 -147 -9 -243 -44 -45 -16
-100 -29 -250 -58 -57 -11 -176 -5 -220 11 -16 6 -52 27 -78 46 -62 45 -62 73
0 84 23 4 51 12 62 17 11 6 32 11 48 11 15 0 52 11 81 25 31 14 72 25 97 25
50 0 101 33 76 49 -8 5 -30 12 -51 15 -25 4 -50 19 -78 48 -59 59 -56 74 13
83 21 2 48 11 61 20 13 8 44 18 69 22 25 3 48 10 51 14 3 5 20 9 38 9 18 0 59
9 92 20 108 38 189 62 234 70 25 5 58 13 75 20 16 6 66 18 110 26 43 9 87 20
97 25 9 5 72 23 140 40 67 17 128 34 135 37 9 6 8 15 -4 40 -14 30 -14 34 0
50 9 10 16 26 15 37 -1 11 1 29 5 40 11 33 -6 50 -34 35 -12 -7 -64 -13 -113
-14 -50 -1 -99 -6 -108 -10 -13 -6 -18 -4 -18 8 0 9 -8 16 -17 16 -10 0 -28 3
-40 6 -18 5 -21 3 -16 -15 3 -12 1 -21 -5 -21 -5 0 -12 10 -15 21 -5 17 -11
20 -29 14 -13 -3 -45 -11 -72 -15 -53 -10 -62 -16 -80 -51 -12 -23 -31 -27
-31 -6 0 6 -15 13 -34 15 -19 2 -40 10 -48 18 -8 8 -23 14 -33 14 -11 0 -24 9
-30 20 -13 24 -25 25 -64 5 -31 -16 -46 -12 -46 12 0 12 -7 14 -27 9 -54 -11
-158 -14 -170 -5 -8 7 -21 5 -40 -4 -24 -12 -33 -12 -60 -1 -18 8 -33 19 -33
24 0 12 3 12 33 1 18 -7 30 -5 46 5 11 8 46 16 79 17 52 1 59 4 77 32 17 25
28 30 63 32 23 0 72 10 109 21 38 12 82 24 100 27 18 4 43 15 57 26 20 16 30
18 45 10 29 -16 67 -13 109 8 36 18 100 33 194 46 26 3 50 10 53 16 4 5 15 9
27 9 17 0 18 -2 8 -15 -10 -12 -10 -15 3 -15 9 0 27 4 40 9 14 5 60 14 103 20
165 23 167 24 257 136 44 55 85 106 91 114 19 25 -76 2 -106 -26 -35 -33 -171
-80 -237 -82 -30 0 -59 -5 -65 -10 -7 -6 -42 -15 -80 -21 -38 -6 -85 -19 -105
-29 -20 -10 -56 -23 -81 -29 -149 -38 -261 -62 -284 -62 -15 0 -43 -7 -64 -16
-67 -28 -176 -53 -186 -43 -16 15 -37 10 -72 -16 -19 -14 -55 -32 -81 -40 -68
-20 -80 -7 -41 45 15 21 29 29 47 28 14 -1 37 5 51 14 14 9 42 16 63 15 26 -1
44 5 59 21 20 20 21 25 10 54 -13 35 1 66 17 39 6 -9 18 -12 37 -7 16 4 58 11
94 16 69 8 100 17 100 30 0 4 21 10 46 14 47 6 74 20 74 38 0 10 -13 9 -127
-13 -67 -14 -88 -8 -57 16 10 8 -35 -8 -100 -35 -66 -27 -122 -54 -125 -58
-14 -23 -79 -52 -115 -52 -21 0 -59 -11 -85 -24 -25 -13 -71 -35 -101 -49 -73
-33 -140 -83 -140 -105 0 -14 -2 -14 -9 -3 -8 12 -23 6 -80 -29 -39 -23 -80
-55 -91 -70 -17 -24 -28 -28 -91 -34 -39 -4 -73 -5 -76 -2 -9 8 45 82 85 117
32 28 35 29 57 15 22 -15 28 -13 92 20 37 20 95 55 128 79 33 23 86 57 118 75
31 17 57 38 57 45 0 18 39 45 64 45 16 0 127 59 336 179 32 18 40 26 28 29
-37 7 -18 25 21 19 32 -4 43 -1 53 14 7 11 27 21 43 23 17 1 48 12 69 23 39
20 39 21 15 28 -13 5 -63 8 -111 7 -76 -2 -96 -6 -161 -36 -90 -42 -114 -49
-151 -38 l-29 8 32 27 c18 15 37 25 42 22 4 -3 30 3 56 13 118 47 435 128 453
117 6 -4 15 -18 21 -32 l9 -25 48 28 c89 53 187 96 282 125 96 30 154 68 143
94 -2 8 8 34 22 60 24 40 38 51 119 89 110 52 302 163 374 217 68 52 381 216
497 261 50 20 168 66 263 103 94 37 172 71 172 75 0 5 -8 6 -18 4 -334 -75
-441 -103 -512 -134 -25 -11 -123 -43 -219 -70 -96 -28 -193 -59 -216 -69 -26
-11 -48 -15 -62 -10 -11 4 -51 3 -89 -2 -148 -19 -192 -22 -224 -10 -30 10
-49 4 -248 -78 -118 -50 -224 -98 -236 -109 -11 -11 -42 -24 -67 -30 -25 -6
-79 -25 -120 -42 -41 -17 -99 -38 -129 -47 -30 -9 -62 -24 -71 -34 -9 -10 -42
-30 -74 -44 -93 -41 -109 -32 -47 27 38 37 151 108 172 108 6 0 57 39 113 86
56 47 156 119 222 159 66 40 134 85 150 98 17 14 61 40 98 58 73 36 83 49 39
49 -16 0 -55 9 -87 20 -74 25 -59 30 -385 -123 -140 -66 -291 -132 -335 -147
-44 -15 -136 -53 -205 -85 -211 -96 -339 -142 -354 -128 -12 12 19 47 87 97
146 108 375 245 1017 611 263 149 273 156 221 150 -43 -6 -53 -4 -49 6 16 50
712 443 1053 595 72 32 225 106 340 165 116 58 233 114 260 124 28 9 88 40
135 69 47 29 103 64 125 76 22 13 42 27 45 30 30 36 411 269 492 302 29 12 57
24 61 28 4 4 -20 15 -55 25 -35 9 -81 26 -102 37 -36 19 -38 22 -22 33 9 7 41
20 69 30 29 9 58 18 65 20 9 3 10 10 3 23 -7 14 -5 26 8 48 17 29 48 48 126
80 l40 16 -33 10 c-27 7 -53 3 -130 -21 -54 -17 -157 -47 -231 -66 -193 -52
-475 -160 -579 -221 l-47 -28 53 -7 c29 -4 58 -12 66 -18 7 -6 15 -8 19 -5 3
3 51 12 106 20 55 8 104 14 108 15 35 6 73 -3 73 -16 0 -90 -240 -294 -475
-405 -189 -90 -252 -112 -299 -108 -36 4 -54 -3 -161 -67 -155 -93 -539 -289
-825 -422 -242 -113 -380 -184 -530 -273 -125 -74 -374 -200 -397 -200 -10 0
-70 -25 -133 -56 -63 -31 -153 -73 -200 -93 -78 -34 -490 -266 -618 -348 -29
-19 -56 -33 -58 -30 -8 8 113 113 218 190 111 81 274 175 487 282 74 37 191
98 260 137 183 102 188 115 12 29 -47 -23 -92 -41 -101 -41 -23 0 -493 -263
-690 -386 -336 -209 -367 -236 -320 -279 11 -10 20 -24 20 -30 0 -7 7 -18 16
-26 13 -11 21 -10 50 6 32 17 35 17 52 1 13 -11 28 -14 49 -10 39 8 48 -7 23
-34 -11 -12 -20 -29 -20 -38 0 -14 -8 -16 -55 -10 -51 6 -58 4 -82 -20 -22
-22 -25 -32 -21 -75 3 -27 3 -47 0 -44 -14 14 -54 129 -68 195 -25 121 -24
121 -56 97 -15 -12 -15 -18 4 -83 11 -38 21 -91 23 -119 1 -27 7 -62 13 -76
11 -27 5 -109 -8 -109 -4 0 -17 28 -30 63 -12 34 -33 81 -46 105 -26 44 -50
58 -39 22 8 -25 -10 -50 -35 -50 -22 0 -80 29 -80 41 0 4 12 16 28 26 34 22
42 33 42 61 0 30 16 28 33 -4 8 -15 17 -22 20 -16 9 14 -3 72 -15 72 -11 0
-109 -72 -162 -119 -54 -49 -182 -224 -197 -269 -6 -21 -16 -43 -22 -50 -6 -7
-83 -68 -171 -136 -89 -68 -212 -172 -274 -230 -62 -58 -173 -157 -247 -221
-74 -64 -135 -118 -135 -120 0 -3 21 6 48 19 26 14 110 48 187 77 77 28 197
76 267 106 70 30 135 53 145 51 13 -2 4 -18 -43 -73 -33 -39 -99 -119 -146
-180 -47 -60 -148 -175 -224 -255 -77 -80 -185 -196 -242 -257 l-103 -111 -77
-7 c-45 -4 -98 -16 -128 -30 l-51 -23 -71 -178 c-39 -99 -83 -214 -98 -257
-32 -93 -235 -466 -340 -625 -53 -81 -72 -117 -65 -126 6 -7 8 -22 4 -34 -3
-12 -2 -30 2 -39 6 -16 8 -16 18 -3 7 8 21 20 31 25 11 6 20 24 21 40 1 17 33
78 73 140 79 123 169 266 192 306 68 121 324 462 489 654 120 139 303 327 386
395 39 31 126 94 195 139 69 44 156 105 193 134 118 90 270 198 309 218 44 23
84 25 91 5 4 -10 -49 -69 -151 -168 -160 -156 -176 -173 -224 -243 -15 -22
-85 -99 -155 -170 -227 -231 -530 -603 -680 -835 -45 -69 -90 -134 -100 -145
-10 -11 -26 -36 -36 -55 -52 -103 -66 -127 -81 -139 -9 -7 -16 -19 -16 -26 0
-6 -9 -20 -20 -30 -11 -10 -22 -34 -26 -54 -7 -43 -35 -130 -59 -186 -10 -22
-26 -69 -36 -104 -18 -62 -18 -63 1 -68 20 -5 34 -29 24 -44 -3 -5 -15 -10
-27 -10 -13 -1 -16 -3 -7 -5 8 -3 98 22 200 55 239 77 265 87 263 98 -1 5 32
10 74 11 42 2 99 9 127 17 70 19 214 40 223 32 15 -16 -24 -31 -184 -72 -196
-50 -313 -98 -447 -185 -71 -46 -100 -60 -108 -52 -8 8 -7 16 3 28 12 16 12
17 -3 11 -9 -3 -75 -42 -146 -86 -114 -71 -145 -97 -261 -217 -73 -76 -139
-147 -147 -159 -8 -13 -20 -53 -27 -90 l-13 -67 -53 -20 c-29 -11 -51 -21 -49
-23 3 -3 182 10 271 21 32 4 57 3 57 -2 0 -5 -29 -28 -64 -52 -39 -26 -70 -56
-82 -79 -10 -20 -29 -53 -41 -71 -13 -19 -23 -49 -23 -67 0 -26 -9 -40 -49
-73 -101 -85 -133 -169 -95 -249 21 -42 206 -238 245 -259 15 -8 37 -14 49
-14 42 0 33 29 -31 106 -43 53 -60 80 -53 89 5 7 32 43 61 81 47 62 52 74 53
119 0 44 5 56 43 101 23 28 60 67 82 86 70 61 297 229 331 245 l33 16 -42 27
c-67 43 -71 50 -64 141 4 63 10 86 26 103 12 12 21 32 21 44 0 25 17 42 125
127 183 143 587 384 706 422 62 19 71 28 40 38 -11 3 -38 26 -61 51 -38 41
-42 50 -37 84 3 21 11 50 18 66 29 60 197 131 418 178 99 21 105 24 122 55 10
19 31 42 47 51 16 10 35 31 42 47 12 27 62 53 104 53 18 0 107 39 126 55 8 7
37 20 64 29 26 9 57 21 67 27 10 5 35 10 54 11 19 1 35 5 35 9 0 5 22 20 48
33 53 27 74 47 70 67 -2 8 3 13 11 11 7 -1 34 11 60 28 26 16 55 30 64 30 19
0 30 -33 25 -81 -2 -28 -10 -38 -40 -54 -21 -11 -40 -26 -43 -32 -13 -36 141
-62 248 -42 34 6 82 11 106 10 24 -1 58 3 75 8 53 17 150 38 175 39 13 1 40
12 60 26 23 16 51 26 73 26 45 0 251 53 281 72 34 23 133 30 149 11 10 -13 9
-18 -7 -30 -13 -9 -20 -26 -20 -45 0 -26 -5 -33 -28 -39 -52 -14 -81 -59 -38
-59 11 0 22 -4 26 -9 18 -30 188 20 200 59 5 15 17 17 79 14 67 -3 74 -1 79
16 3 11 13 20 22 20 28 0 11 -55 -27 -89 -46 -42 -219 -93 -301 -89 -20 1 -40
-1 -43 -5 -3 -3 -18 -1 -32 4 -28 11 -72 4 -72 -10 0 -11 120 -48 220 -68 142
-28 234 -62 339 -124 79 -46 106 -68 116 -92 7 -18 22 -43 33 -57 10 -14 22
-35 26 -47 4 -14 15 -23 27 -23 34 0 20 -19 -18 -25 -130 -21 -861 -204 -978
-245 -49 -18 -184 -76 -300 -130 -227 -105 -286 -125 -412 -134 -59 -5 -134
-23 -275 -67 -106 -33 -209 -68 -228 -78 -142 -73 -213 -118 -225 -140 -21
-42 2 -53 109 -57 327 -10 486 -34 486 -73 0 -17 -39 -61 -54 -61 -5 0 -6 8
-3 19 3 13 -5 24 -25 36 -25 14 -45 16 -136 10 -59 -4 -140 -15 -181 -26 -41
-10 -84 -19 -95 -19 -12 0 -64 -15 -116 -32 -72 -25 -105 -43 -137 -74 -45
-43 -52 -64 -29 -84 8 -6 12 -18 9 -26 -3 -9 4 -28 16 -44 27 -37 27 -52 -1
-76 -11 -10 -48 -59 -81 -109 -58 -88 -59 -91 -55 -148 2 -31 9 -61 14 -66 5
-6 39 9 84 36 41 24 120 67 175 95 55 28 111 58 125 68 14 10 57 33 95 52 39
19 122 60 185 91 141 70 199 85 364 97 120 9 187 22 211 40 48 38 509 39 1049
4 56 -4 97 -3 95 2 -46 99 -157 205 -297 279 -84 45 -77 49 123 65 186 14 295
53 303 108 10 71 -65 166 -173 217 -124 59 -113 69 55 55 186 -17 309 -65 387
-154 40 -45 63 -101 63 -150 0 -19 -10 -32 -42 -52 -70 -44 -106 -55 -247 -72
-76 -10 -135 -21 -134 -27 1 -5 30 -27 64 -48 134 -81 203 -158 197 -219 l-3
-33 88 -3 c48 -1 94 1 103 6 9 5 50 3 102 -5 48 -8 102 -17 120 -19 47 -7 39
-20 -22 -38 -30 -9 -57 -20 -61 -25 -3 -5 -44 -21 -93 -36 -48 -14 -105 -35
-127 -45 -22 -11 -60 -25 -84 -31 -24 -6 -62 -22 -84 -36 -21 -13 -64 -31 -95
-39 -30 -8 -76 -30 -101 -48 -25 -19 -64 -39 -86 -45 -22 -6 -53 -20 -70 -31
-28 -19 -134 -72 -214 -107 -18 -8 -31 -16 -29 -19 3 -2 128 7 279 21 151 13
339 29 418 35 82 5 149 15 158 21 14 12 65 14 238 11 44 -1 204 5 355 13 800
43 1653 73 2740 95 278 6 595 15 705 21 509 26 1319 103 1840 175 116 16 265
28 420 34 226 8 262 12 600 69 790 133 1218 231 2158 497 335 95 1232 418
1727 621 l185 77 120 -3 c134 -3 139 -5 233 -99 l44 -43 95 88 c241 222 311
287 450 418 81 77 166 155 188 172 l40 33 -80 -29 c-93 -34 -288 -117 -361
-154 -113 -57 -861 -378 -1114 -477 -527 -208 -984 -356 -1035 -336 -17 6 -17
7 0 26 16 17 7 16 -71 -11 -107 -36 -243 -49 -304 -29 -32 11 -50 11 -88 1
-220 -56 -401 -83 -563 -83 -115 1 -129 3 -170 26 -24 14 -54 26 -66 26 -12 0
-32 5 -45 11 -17 7 -85 4 -258 -14 -129 -14 -242 -25 -250 -26 -8 0 -91 -8
-185 -17 -93 -10 -197 -18 -230 -18 -57 -1 -60 0 -57 23 2 13 -5 32 -16 45
-11 11 -27 36 -36 54 -10 20 -24 32 -37 32 -11 0 -38 9 -60 20 -37 19 -47 20
-147 10 -59 -6 -132 -18 -162 -26 -74 -19 -223 -45 -287 -51 l-53 -5 0 50 c0
39 -6 58 -30 90 -16 23 -30 46 -30 50 0 43 -155 72 -278 52 -42 -7 -121 -28
-175 -47 -55 -19 -101 -32 -103 -30 -2 2 3 21 11 41 18 42 13 71 -16 86 -10 6
-19 18 -19 26 0 13 -9 15 -47 12 -27 -3 -69 -11 -95 -18 -37 -11 -51 -11 -60
-2 -8 8 -5 14 14 21 15 5 29 14 32 20 8 13 109 59 169 78 27 8 74 33 105 56
31 23 82 55 112 70 30 15 62 32 70 36 8 5 29 15 45 22 17 8 57 30 90 50 33 20
78 44 100 53 22 10 49 23 60 29 11 6 44 23 73 38 28 15 78 45 109 66 103 68
455 333 589 443 148 122 247 190 279 190 15 0 27 -12 43 -45 12 -25 22 -56 23
-68 0 -12 4 -30 8 -41 6 -15 17 -3 63 65 82 122 131 218 184 359 25 69 53 139
62 155 18 35 25 40 -108 -70 -146 -122 -684 -550 -731 -582 -106 -73 -808
-473 -829 -473 -23 0 -8 40 20 55 38 20 263 166 270 175 3 4 50 37 105 75 91
62 431 307 615 444 41 31 124 89 185 130 148 99 304 214 379 280 33 29 99 83
146 119 47 36 130 105 185 152 56 49 129 101 166 119 37 18 111 68 165 112
109 88 448 429 521 524 25 33 51 65 58 70 6 6 16 17 21 27 5 9 36 45 68 80
212 226 357 379 397 418 79 76 129 142 129 171 0 22 30 56 148 169 173 168
304 307 424 451 48 57 124 145 169 194 44 50 133 155 197 235 64 80 139 170
167 201 260 290 539 658 617 812 24 48 70 168 64 167 0 0 -42 -55 -92 -123z
m-4079 -1788 c11 -16 1 -19 -13 -3 -7 8 -8 14 -3 14 5 0 13 -5 16 -11z m-8686
-415 c-41 -43 -210 -156 -258 -172 -33 -12 -51 -9 -51 7 0 19 296 198 329 200
9 1 1 -14 -20 -35z m8061 26 c0 -5 -7 -10 -16 -10 -8 0 -12 5 -9 10 3 6 10 10
16 10 5 0 9 -4 9 -10z m-105 -20 c0 -22 -29 -18 -33 3 -3 14 1 18 15 15 10 -2
18 -10 18 -18z m62 -86 c-3 -3 -12 -4 -19 -1 -8 3 -5 6 6 6 11 1 17 -2 13 -5z
m-8496 -18 c-12 -14 -98 -32 -108 -23 -9 10 52 36 86 37 27 0 31 -2 22 -14z
m8441 -1 c0 -5 -5 -11 -11 -13 -6 -2 -11 4 -11 13 0 9 5 15 11 13 6 -2 11 -8
11 -13z m-8669 -59 c14 -20 14 -26 3 -35 -23 -20 -61 31 -39 52 11 12 20 8 36
-17z m305 -22 c53 -15 -5 -54 -80 -54 -15 0 -30 -4 -33 -10 -8 -13 -35 -13
-35 -1 0 5 15 14 33 20 17 6 43 20 57 31 28 22 27 22 58 14z m6212 -73 c0 -14
-149 -113 -166 -109 -19 4 124 106 164 117 1 1 2 -3 2 -8z m2400 -86 c0 -3
-13 -29 -30 -58 -24 -43 -45 -63 -104 -100 -89 -57 -201 -109 -317 -148 -153
-51 -143 -36 44 67 64 36 117 71 117 78 0 17 96 81 190 128 71 35 100 44 100
33z m-2726 -56 c-10 -12 -39 -31 -64 -42 -25 -11 -71 -35 -103 -55 -31 -19
-61 -32 -65 -28 -9 10 28 37 97 71 31 15 76 38 101 51 56 29 58 29 34 3z
m2943 -6 c2 -6 -4 -14 -14 -17 -10 -3 -34 -20 -52 -37 -40 -36 -56 -28 -43 22
8 30 12 34 39 31 17 -2 34 2 38 8 8 13 27 9 32 -7z m87 -14 c-7 -12 -34 -11
-34 1 0 5 -7 7 -15 4 -8 -4 -15 -1 -15 4 0 14 42 20 57 9 7 -5 10 -13 7 -18z
m-224 -37 c-4 -24 -39 -87 -90 -163 -84 -125 -107 -159 -154 -237 -15 -24 -93
-109 -174 -190 -119 -119 -165 -158 -242 -203 -52 -32 -156 -100 -230 -152
-74 -52 -153 -103 -175 -115 -22 -11 -49 -29 -59 -41 -24 -26 -36 -26 -64 0
l-22 20 20 26 c17 21 28 63 17 63 -24 0 -109 -39 -132 -60 -16 -16 -73 -55
-125 -87 -52 -33 -121 -76 -152 -96 -68 -44 -374 -197 -394 -197 -8 0 -14 4
-14 9 0 15 109 109 185 159 39 25 88 62 110 82 22 19 72 58 110 85 39 27 138
102 220 165 212 164 545 399 645 455 79 44 171 110 178 127 2 5 9 8 14 8 26 0
200 114 208 136 5 12 18 28 30 34 11 6 18 15 15 21 -9 14 38 49 51 38 14 -12
24 -1 17 19 -5 12 -2 14 11 9 32 -12 199 89 174 105 -10 6 -10 10 2 17 22 15
28 5 20 -37z m225 -8 c14 -21 15 -28 4 -35 -16 -9 -32 -2 -24 12 4 5 3 14 -1
20 -4 7 -14 0 -25 -18 -14 -20 -19 -23 -19 -11 0 18 29 58 41 58 4 0 14 -12
24 -26z m-139 -23 c14 11 15 11 18 -13 2 -13 -12 -28 -26 -28 -5 0 -8 7 -8 15
0 8 -5 15 -11 15 -5 0 -7 5 -3 12 6 9 9 9 12 0 3 -10 7 -10 18 -1z m-79 -67
c-3 -3 -12 -4 -19 -1 -8 3 -5 6 6 6 11 1 17 -2 13 -5z m-3237 -58 c0 -21 -27
-48 -117 -117 -164 -128 -478 -309 -533 -309 -32 0 14 98 50 107 14 3 59 24
100 48 41 23 96 52 123 63 51 23 297 164 336 194 22 17 41 23 41 14z m-5130
-266 c0 -5 -10 -10 -22 -10 -19 0 -20 2 -8 10 19 13 30 13 30 0z m2770 -50 c0
-14 -83 -60 -109 -60 -30 0 -22 24 9 28 14 2 35 13 49 23 25 20 51 25 51 9z
m-2637 -59 c-2 -3 -23 -4 -48 -2 -53 2 -120 -16 -154 -41 -29 -22 -45 -23 -61
-3 -19 23 5 45 49 45 36 0 116 24 136 40 5 4 21 10 35 12 19 2 28 -3 36 -22 6
-14 9 -27 7 -29z m-463 -91 c0 -15 -48 -43 -65 -36 -22 8 -18 25 8 36 30 12
57 12 57 0z m2740 -109 c0 -9 -24 -21 -42 -21 -6 0 -6 6 2 15 14 16 40 20 40
6z m1779 0 c11 -7 11 -17 0 -62 -7 -30 -16 -58 -20 -64 -18 -24 -197 -104
-246 -111 l-53 -6 0 41 c0 22 5 51 11 65 17 37 103 91 204 127 56 20 83 23
104 10z m-1926 -25 c9 0 17 -6 17 -13 0 -8 -8 -17 -17 -20 -10 -4 -20 -10 -23
-14 -9 -12 -48 1 -54 18 -9 23 13 45 38 36 12 -3 29 -7 39 -7z m27 -46 c0 -5
-7 -10 -16 -10 -8 0 -12 5 -9 10 3 6 10 10 16 10 5 0 9 -4 9 -10z m-1209 -54
c-13 -15 -69 -32 -78 -23 -7 8 48 36 71 37 15 0 16 -3 7 -14z m8123 -111 c3
-8 1 -15 -4 -15 -6 0 -10 7 -10 15 0 8 2 15 4 15 2 0 6 -7 10 -15z m-4986 -28
c3 -14 -1 -18 -20 -15 -12 2 -24 11 -26 21 -3 14 1 18 20 15 12 -2 24 -11 26
-21z m-956 -32 c0 -5 -5 -11 -11 -13 -6 -2 -11 4 -11 13 0 9 5 15 11 13 6 -2
11 -8 11 -13z m1008 5 c0 -5 -7 -10 -15 -10 -8 0 -15 5 -15 10 0 6 7 10 15 10
8 0 15 -4 15 -10z m-4362 -28 c2 -16 -3 -25 -20 -31 -32 -12 -38 -5 -26 30 12
35 41 36 46 1z m9180 -5 c5 -23 -10 -21 -26 4 -12 18 -11 20 5 17 10 -2 19
-11 21 -21z m-6128 -52 c0 -18 -48 -31 -62 -17 -16 16 0 32 33 32 19 0 29 -5
29 -15z m-3181 -14 c-18 -28 -49 -45 -62 -32 -16 16 0 39 30 44 15 2 31 5 36
6 4 0 2 -7 -4 -18z m71 -51 c-20 -13 -33 -13 -25 0 3 6 14 10 23 10 15 0 15
-2 2 -10z m8800 -223 c0 -5 -4 -5 -10 -2 -5 3 -10 14 -10 23 0 15 2 15 10 2 5
-8 10 -19 10 -23z m-1870 18 c0 -10 -81 -55 -90 -50 -17 11 -11 24 18 39 26
15 72 21 72 11z m-455 -636 c4 -6 -4 -22 -16 -36 -43 -46 -251 -175 -336 -209
-46 -18 -105 -46 -131 -63 -54 -34 -123 -54 -173 -49 l-34 3 23 21 c23 21 23
21 2 27 -32 8 -24 43 21 92 81 88 117 103 424 181 182 46 210 50 220 33z
m-5019 -12 c11 -11 -19 -8 -36 3 -12 8 -10 9 7 7 12 -2 26 -6 29 -10z m59 3
c-3 -5 -16 -10 -28 -10 -18 0 -19 2 -7 10 20 13 43 13 35 0z m3626 -65 c11
-16 19 -36 19 -44 0 -7 12 -24 26 -38 30 -28 27 -47 -9 -51 -22 -3 -32 5 -59
43 -35 50 -47 80 -40 107 6 26 43 17 63 -17z m-5726 4 c9 -14 2 -19 -39 -29
-43 -9 -47 3 -8 24 33 18 39 19 47 5z m-123 -56 c21 -19 24 -53 4 -53 -7 0
-19 -6 -25 -14 -9 -11 -140 -81 -213 -114 -5 -2 -8 3 -8 11 0 9 -14 17 -37 21
-67 11 -89 7 -113 -20 -17 -17 -31 -23 -47 -20 -12 4 -33 2 -47 -4 -52 -20
-80 21 -28 42 15 6 41 10 59 9 24 -1 36 5 49 24 15 23 21 25 63 19 38 -5 50
-2 70 15 17 15 38 21 71 21 34 0 52 5 65 20 10 11 22 17 26 14 5 -3 9 0 9 5 0
6 8 11 18 11 9 0 26 7 36 15 25 19 25 19 48 -2z m4351 -520 c-7 -2 -19 -2 -25
0 -7 3 -2 5 12 5 14 0 19 -2 13 -5z m-5548 -186 c-18 -44 -45 -49 -45 -7 0 23
6 33 23 39 32 12 38 5 22 -32z m4953 22 c-2 -6 -8 -10 -13 -10 -5 0 -11 4 -13
10 -2 6 4 11 13 11 9 0 15 -5 13 -11z m-5118 -89 c0 -30 -61 -40 -115 -20 -36
14 -22 30 26 30 21 0 39 4 39 9 0 4 11 6 25 3 15 -3 25 -11 25 -22z m5550 11
c0 -34 -286 -188 -308 -166 -15 15 22 42 146 106 127 66 162 79 162 60z m3488
-155 c2 -15 -2 -41 -8 -57 -18 -43 -123 -124 -153 -117 -7 2 -37 -6 -68 -16
l-56 -19 -36 34 -35 33 19 37 c42 83 168 140 299 135 31 -1 35 -5 38 -30z
m1451 -277 c20 -2 -56 -18 -86 -18 -13 -1 -23 3 -23 8 0 13 30 20 64 15 16 -2
36 -5 45 -5z"/>
<path d="M7343 7523 c-7 -2 -13 -11 -13 -19 0 -11 7 -13 28 -8 34 8 36 10 27
23 -6 11 -21 13 -42 4z"/>
<path d="M5113 6917 c-229 -120 -300 -163 -289 -174 13 -14 380 174 451 230
22 18 54 42 70 54 17 12 28 22 25 22 -3 0 -118 -60 -257 -132z"/>
<path d="M5220 6790 c-8 -5 -46 -22 -85 -36 -38 -15 -122 -53 -185 -84 -63
-32 -126 -61 -140 -65 -14 -3 -57 -20 -96 -37 -64 -29 -100 -61 -122 -110 -8
-18 360 147 370 166 4 8 69 49 143 91 74 43 135 79 135 81 0 6 -3 5 -20 -6z"/>
<path d="M5880 6640 c-8 -5 -10 -10 -5 -10 6 0 17 5 25 10 8 5 11 10 5 10 -5
0 -17 -5 -25 -10z"/>
<path d="M5687 6257 c-64 -40 -132 -84 -150 -100 -29 -25 -25 -24 48 12 72 35
120 67 204 138 14 12 24 22 21 22 -3 0 -58 -32 -123 -72z"/>
<path d="M10580 6224 c-19 -14 -65 -43 -101 -65 -36 -22 -71 -51 -77 -64 -6
-14 -8 -25 -4 -25 17 0 100 61 162 119 70 65 76 75 20 35z"/>
<path d="M9130 5319 c-30 -17 -98 -42 -150 -55 -96 -26 -130 -47 -130 -85 0
-17 3 -17 38 -5 88 31 312 155 312 172 0 9 -18 2 -70 -27z"/>
<path d="M5216 4534 c-54 -18 -106 -40 -115 -48 -28 -25 -92 -47 -120 -42 -16
3 -89 -15 -201 -52 l-175 -58 42 -25 c24 -13 43 -30 43 -36 0 -19 44 -26 108
-18 102 13 176 12 217 -1 22 -8 43 -14 46 -14 4 0 26 25 49 57 24 31 83 102
131 159 49 57 89 106 89 109 0 8 -8 6 -114 -31z"/>
<path d="M4546 4272 c-3 -5 -31 -15 -63 -22 -32 -7 -64 -18 -71 -23 -7 -5 -33
-7 -59 -4 -40 4 -63 -1 -138 -32 -118 -50 -201 -93 -160 -84 17 3 39 11 50 18
28 15 137 14 142 -2 3 -7 -2 -13 -11 -13 -9 0 -16 -5 -16 -10 0 -7 7 -7 21 0
12 7 18 18 15 26 -4 11 5 14 37 14 24 0 47 4 53 9 5 5 27 14 49 21 22 7 60 23
85 36 25 13 53 24 63 24 10 0 27 5 38 11 16 8 18 13 8 25 -13 15 -35 19 -43 6z"/>
<path d="M4045 3759 c-16 -10 -40 -19 -53 -19 -30 0 -64 -18 -57 -31 4 -5 14
-9 23 -9 21 0 152 62 152 73 0 13 -34 6 -65 -14z"/>
<path d="M5057 3301 c-23 -12 -32 -24 -34 -43 -2 -34 9 -42 53 -34 31 6 64 44
64 74 0 18 -50 19 -83 3z"/>
<path d="M5230 3280 c-12 -8 -10 -10 10 -10 14 0 32 5 40 10 12 8 10 10 -10
10 -14 0 -32 -5 -40 -10z"/>
<path d="M4944 3209 c-3 -6 -1 -16 5 -22 13 -13 42 0 49 21 5 15 -44 16 -54 1z"/>
<path d="M4630 3181 c0 -12 39 -21 45 -11 3 4 -2 11 -11 14 -22 8 -34 7 -34
-3z"/>
<path d="M4500 3154 c-30 -8 -89 -21 -130 -29 -96 -18 -161 -39 -163 -51 -3
-12 121 -18 136 -6 7 5 34 13 61 17 67 9 166 57 166 79 0 7 -2 7 -70 -10z"/>
<path d="M4090 2506 c0 -9 7 -16 16 -16 17 0 14 22 -4 28 -7 2 -12 -3 -12 -12z"/>
<path d="M3640 2490 c-25 -11 -61 -19 -81 -19 -24 -1 -43 -9 -58 -25 -12 -13
-35 -26 -49 -29 -15 -2 -49 -12 -77 -22 -27 -9 -63 -21 -80 -27 -16 -5 -52
-18 -80 -28 -148 -53 -386 -104 -541 -116 -43 -4 -93 -13 -111 -21 -18 -8 -38
-13 -45 -10 -23 8 -264 -121 -297 -159 -41 -46 -39 -72 9 -130 22 -27 39 -53
37 -59 -2 -5 -41 -15 -88 -21 -93 -12 -178 -44 -284 -106 -87 -51 -195 -138
-237 -190 -17 -22 -55 -57 -85 -79 -80 -59 -176 -199 -192 -279 -5 -25 -11
-52 -15 -60 -5 -13 17 -15 168 -15 156 0 200 -5 185 -20 -3 -2 -51 -9 -108
-14 -93 -9 -110 -13 -172 -50 -38 -21 -85 -45 -104 -51 -20 -6 -58 -34 -85
-60 -43 -42 -50 -54 -50 -87 0 -32 7 -46 36 -74 l35 -34 -6 -90 c-6 -78 -4
-98 15 -147 49 -130 151 -252 283 -336 31 -20 80 -54 108 -75 40 -30 48 -34
39 -17 -7 12 -9 35 -6 51 8 40 -2 60 -80 168 l-68 95 12 80 c17 117 50 176
153 277 76 74 224 189 244 189 11 0 197 92 235 116 49 32 156 72 215 81 l50 7
-75 7 c-41 3 -126 7 -187 8 -112 1 -113 1 -113 25 0 75 221 284 366 347 87 37
347 107 439 118 50 6 149 11 221 11 156 0 183 7 365 94 106 51 177 76 338 120
112 31 267 68 345 82 197 35 288 54 311 67 19 10 18 12 -10 17 -29 5 -30 7
-46 105 -9 55 -23 114 -32 132 -21 39 -89 96 -147 122 -40 18 -45 18 -56 3 -6
-9 -10 -22 -7 -28 2 -7 -1 -15 -8 -20 -22 -13 -195 -62 -384 -108 -39 -9 -84
-13 -127 -9 -48 4 -81 1 -110 -9 -83 -30 -134 -40 -200 -43 -55 -1 -66 1 -57
11 18 22 81 34 144 28 49 -5 63 -3 74 10 8 9 12 18 10 19 -2 2 -16 11 -31 20
-47 29 -35 47 74 109 45 25 69 50 84 84 11 25 21 33 52 38 41 6 62 30 36 40
-24 9 -45 6 -94 -14z"/>
<path d="M431 1748 c-57 -69 -59 -73 -38 -81 12 -4 25 -13 30 -20 5 -7 6 -4 2
9 -8 30 29 111 54 119 27 8 49 45 27 45 -9 0 -42 -33 -75 -72z"/>
<path d="M870 1670 c-9 -6 -10 -10 -3 -10 6 0 15 5 18 10 8 12 4 12 -15 0z"/>
</g>
</svg>
